<svg width="49" height="45" viewBox="0 0 49 45" fill="none" xmlns="http://www.w3.org/2000/svg">
<g clip-path="url(#clip0_34_73)">
<path d="M12.4597 42.1715L0.507175 30.219L4.68588 26.0402C5.51851 25.2076 6.3492 24.6649 7.17794 24.412C8.00278 24.1552 8.78872 24.1357 9.53576 24.3536C10.2789 24.5676 10.9423 24.9664 11.5259 25.55C12.0395 26.0636 12.3721 26.5791 12.5239 27.0966C12.6795 27.6102 12.7068 28.1121 12.6056 28.6023C12.5083 29.0887 12.3352 29.5497 12.0862 29.9855L12.2029 30.1022C12.592 29.7598 13.088 29.5206 13.6911 29.3844C14.2942 29.2482 14.9381 29.2735 15.6229 29.4603C16.3077 29.647 16.9652 30.0555 17.5955 30.6859C18.1947 31.285 18.5974 31.9601 18.8036 32.711C19.0098 33.4619 18.9593 34.2712 18.6519 35.1389C18.3445 36.0065 17.72 36.9111 16.7785 37.8527L12.4597 42.1715ZM12.6231 39.4401L15.4945 36.5687C16.44 35.6233 16.9283 34.7692 16.9594 34.0066C16.9905 33.2363 16.7434 32.5885 16.2182 32.0632C15.8135 31.6586 15.3369 31.3881 14.7883 31.252C14.2358 31.1119 13.6658 31.1294 13.0783 31.3045C12.4869 31.4757 11.9305 31.822 11.4092 32.3433L8.46774 35.2848L12.6231 39.4401ZM7.20712 34.0242L9.89176 31.3395C10.3275 30.9037 10.6349 30.4252 10.8139 29.9038C10.9967 29.3785 11.0357 28.8572 10.9306 28.3397C10.8294 27.8183 10.5688 27.3476 10.1486 26.9273C9.6233 26.4021 8.99494 26.1395 8.26347 26.1395C7.52811 26.1356 6.76357 26.5305 5.96985 27.3242L3.23851 30.0555L7.20712 34.0242ZM26.9072 28.0975C26.0434 28.9613 25.1077 29.5157 24.1 29.7608C23.0922 29.9982 22.0748 29.9417 21.0476 29.5916C20.0205 29.2336 19.0478 28.5955 18.1295 27.6773C17.2113 26.7591 16.5693 25.7825 16.2036 24.7475C15.8379 23.7048 15.76 22.6854 15.9702 21.6894C16.1803 20.6855 16.6899 19.779 17.4992 18.9697C17.9661 18.5028 18.505 18.1196 19.1159 17.82C19.7267 17.5204 20.394 17.3589 21.1177 17.3356C21.8375 17.3083 22.5942 17.4698 23.3879 17.82C24.1817 18.1701 24.9968 18.7635 25.8333 19.6L26.4169 20.1836L19.5069 27.0937L18.3163 25.9031L23.8257 20.3937C23.3199 19.8879 22.7674 19.5378 22.1682 19.3432C21.5729 19.1448 20.9757 19.1156 20.3765 19.2557C19.7812 19.3919 19.2345 19.709 18.7365 20.207C18.1879 20.7556 17.8494 21.3664 17.721 22.0395C17.5926 22.7049 17.6374 23.3605 17.8552 24.0063C18.0731 24.6522 18.4291 25.2222 18.9233 25.7163L19.717 26.5101C20.394 27.1871 21.0846 27.6442 21.7888 27.8816C22.4931 28.1111 23.1778 28.1384 23.8432 27.9633C24.5046 27.7843 25.1135 27.4166 25.6699 26.8602C26.0317 26.4984 26.308 26.121 26.4986 25.728C26.6893 25.3273 26.7885 24.9168 26.7963 24.4966C26.8002 24.0725 26.7048 23.6464 26.5103 23.2184L28.2145 22.2613C28.5257 22.8527 28.6872 23.485 28.6989 24.1581C28.7067 24.8273 28.5627 25.5004 28.267 26.1774C27.9674 26.8505 27.5141 27.4905 26.9072 28.0975ZM27.4616 9.24078L28.6288 10.408L23.9832 15.0536L22.816 13.8864L27.4616 9.24078ZM22.0223 10.3847L23.3996 9.00733L31.9438 17.5515C32.3329 17.9406 32.6811 18.176 32.9885 18.2577C33.2958 18.3316 33.5721 18.3122 33.8172 18.1993C34.0623 18.0787 34.2861 17.9172 34.4884 17.7149C34.6401 17.5632 34.7568 17.4309 34.8385 17.3181C34.9164 17.2013 34.9786 17.108 35.0253 17.0379L36.5427 17.9951C36.4844 18.1235 36.389 18.2888 36.2567 18.4911C36.1283 18.6973 35.9357 18.9289 35.679 19.1856C35.2899 19.5747 34.8249 19.8724 34.2841 20.0786C33.7472 20.2809 33.185 20.3334 32.5974 20.2362C32.0138 20.135 31.4613 19.8237 30.94 19.3024L22.0223 10.3847ZM41.3459 13.7055C40.7778 14.2735 40.1553 14.682 39.4783 14.9311C38.7974 15.1762 38.1165 15.2307 37.4356 15.0945C36.7509 14.9544 36.1167 14.5926 35.5331 14.0089C35.0195 13.4954 34.7043 12.9779 34.5876 12.4565C34.467 11.9313 34.4845 11.4079 34.6401 10.8866C34.7957 10.3652 35.0331 9.85552 35.3521 9.3575C35.6712 8.8517 36.0116 8.3634 36.3735 7.89262C36.8481 7.27787 37.2372 6.78374 37.5407 6.41023C37.8442 6.02893 38.029 5.71572 38.0951 5.4706C38.1652 5.22159 38.0893 4.9862 37.8675 4.76442L37.8208 4.71773C37.245 4.1419 36.64 3.85203 36.0058 3.84814C35.3755 3.84036 34.7432 4.15357 34.109 4.78777C33.4515 5.44531 33.0799 6.1048 32.9943 6.76624C32.9087 7.42767 32.9535 7.99767 33.1285 8.47624L31.3543 9.31665C31.0431 8.53849 30.9302 7.80313 31.0158 7.11057C31.1014 6.41023 31.3154 5.76825 31.6578 5.18463C32.0002 4.59323 32.3971 4.07186 32.8484 3.62053C33.1363 3.33261 33.5021 3.03691 33.9456 2.73343C34.3892 2.42217 34.8911 2.1965 35.4513 2.05643C36.0155 1.91247 36.6264 1.93582 37.2839 2.12647C37.9415 2.31711 38.6262 2.76845 39.3382 3.48046L45.2445 9.38668L43.8671 10.764L42.6532 9.5501L42.5832 9.62013C42.6843 9.90805 42.7369 10.2718 42.7407 10.7115C42.7446 11.1512 42.6435 11.6297 42.4373 12.1472C42.2311 12.6647 41.8673 13.1841 41.3459 13.7055ZM40.3187 12.2581C40.8634 11.7134 41.2156 11.1473 41.3751 10.5598C41.5385 9.96836 41.5463 9.40808 41.3984 8.87893C41.2545 8.3459 40.9957 7.89262 40.6222 7.5191L39.3616 6.25849C39.3733 6.38688 39.3091 6.57948 39.169 6.83627C39.0289 7.08528 38.8519 7.35958 38.6379 7.65917C38.4239 7.95098 38.2119 8.23306 38.0018 8.50542C37.7917 8.76999 37.6224 8.98593 37.494 9.15323C37.1827 9.55788 36.924 9.96836 36.7178 10.3847C36.5116 10.7932 36.4163 11.1959 36.4318 11.5928C36.4474 11.9818 36.6303 12.3515 36.9804 12.7016C37.459 13.1802 37.9979 13.365 38.5971 13.2561C39.1962 13.1394 39.7701 12.8067 40.3187 12.2581Z" fill="#305886"/>
</g>
<defs>
<clipPath id="clip0_34_73">
<rect width="49" height="45" fill="white"/>
</clipPath>
</defs>
</svg>
