<svg width="33" height="33" viewBox="0 0 33 33" fill="none" xmlns="http://www.w3.org/2000/svg">
<circle cx="16.5" cy="16.5" r="14.75" fill="white" stroke="#FB5D21" stroke-width="1.5"/>
<circle cx="16.5" cy="16.5" r="11.5" fill="#FB5D21"/>
<path d="M20.334 24.2H13.854C13.53 24.2 13.314 23.984 13.314 23.66C13.314 22.85 12.936 22.364 12.342 21.608C12.018 21.23 11.64 20.744 11.262 20.15C10.236 18.53 9.318 16.586 9.102 15.884C8.886 15.182 9.048 14.696 9.264 14.426C9.48 14.102 9.912 13.94 10.398 13.94C11.046 13.94 11.694 14.48 12.288 15.182V9.62C12.288 8.702 12.99 8 13.908 8C14.826 8 15.528 8.702 15.528 9.62V11.888C15.69 11.834 15.852 11.78 16.068 11.78C16.662 11.78 17.148 12.104 17.418 12.536C17.634 12.374 17.904 12.32 18.174 12.32C18.93 12.32 19.524 12.806 19.74 13.508C19.902 13.454 20.118 13.4 20.334 13.4C21.252 13.4 21.954 14.102 21.954 15.02V16.64C21.954 18.044 21.684 19.178 21.414 20.258C21.144 21.338 20.874 22.364 20.874 23.66C20.874 23.984 20.658 24.2 20.334 24.2ZM14.34 23.12H19.794C19.848 21.932 20.118 20.96 20.334 19.988C20.604 18.908 20.874 17.882 20.874 16.64V15.02C20.874 14.696 20.658 14.48 20.334 14.48C20.01 14.48 19.794 14.696 19.794 15.02V15.56C19.794 15.884 19.578 16.1 19.254 16.1C18.93 16.1 18.714 15.884 18.714 15.56V13.94C18.714 13.616 18.498 13.4 18.174 13.4C17.85 13.4 17.634 13.616 17.634 13.94V15.02C17.634 15.344 17.418 15.56 17.094 15.56C16.77 15.56 16.554 15.344 16.554 15.02V13.4C16.554 13.076 16.338 12.86 16.014 12.86C15.69 12.86 15.474 13.076 15.474 13.4V14.48C15.474 14.804 15.258 15.02 14.934 15.02C14.61 15.02 14.394 14.804 14.394 14.48V9.62C14.394 9.296 14.178 9.08 13.854 9.08C13.53 9.08 13.314 9.296 13.314 9.62V17.72C13.314 18.044 13.098 18.26 12.774 18.26C12.45 18.26 12.234 18.044 12.234 17.72V17.288C11.748 16.046 10.722 15.02 10.344 15.02C10.236 15.02 10.128 15.02 10.074 15.074C10.02 15.128 10.02 15.29 10.074 15.56C10.236 16.154 11.046 17.882 12.126 19.61C12.45 20.15 12.774 20.528 13.098 20.96C13.692 21.608 14.232 22.202 14.34 23.12Z" fill="white"/>
</svg>
