<svg width="117" height="117" viewBox="0 0 117 117" fill="none" xmlns="http://www.w3.org/2000/svg">
<path fill-rule="evenodd" clip-rule="evenodd" d="M99.4272 18.9933L57.0013 60.5593L52.3301 55.9836L94.7593 14.4176C96.05 13.1534 98.1398 13.1534 99.4272 14.4176C100.718 15.6818 100.718 17.7291 99.4272 18.9933ZM45.3282 72.0001C44.8969 71.5787 40.657 67.4245 40.657 67.4245L47.6622 60.5593L52.3301 65.135L45.3282 72.0001ZM38.323 88.01C35.0327 91.0394 20.3301 97.7918 11.6731 91.2452C11.6731 91.2452 14.6859 88.9126 16.9663 84.2307C22.4133 69.8732 35.9891 72.0001 35.9891 72.0001L40.657 76.5725C40.7038 76.619 44.1445 82.6546 38.323 88.01ZM104.098 9.84196C100.23 6.05268 93.9568 6.05268 90.088 9.84196L32.6486 66.1204C25.6167 65.9612 15.8762 68.4332 11.6731 82.0971C8.45974 89.324 0 88.959 0 88.959C17.5649 108.294 38.2662 97.3373 42.9909 92.5857C47.1472 88.4115 47.7458 83.3016 47.3011 79.2137L104.098 23.569C107.967 19.7764 107.967 13.6312 104.098 9.84196Z" fill="#FB5D21"/>
</svg>
