<svg width="34" height="25" viewBox="0 0 34 25" fill="none" xmlns="http://www.w3.org/2000/svg">
<path d="M27.152 2.64538C23.9185 -0.51372 11.3232 0.982439 5.63479 2.71371C-4.75283 7.90752 5.63479 22.005 7.11873 22.747C8.60268 23.4889 15.2804 24.2309 27.152 21.263C39.0236 18.2951 30.1199 5.54498 27.152 2.64538Z" stroke="#2368B0" stroke-width="1.48395"/>
<path d="M21.1272 6.35249C18.4431 5.08993 11.9089 6.72216 7.86068 7.8396C0.468326 11.1919 7.39852 18.8039 8.45457 19.2828C9.51062 19.7617 14.2628 20.2406 22.7113 18.325C31.1597 16.4094 22.7113 7.09762 21.1272 6.35249Z" stroke="#2368B0" stroke-width="1.48395"/>
<path d="M16.7644 10.8073C15.4124 10.1538 12.4938 9.50502 10.3348 10.0637C6.39218 11.7399 10.3348 16.2895 10.898 16.5289C11.4612 16.7684 13.9957 17.0078 18.5016 16.05C23.0074 15.0922 17.6092 11.2156 16.7644 10.8073Z" stroke="#2368B0" stroke-width="1.48395"/>
</svg>
