<svg width="29" height="26" viewBox="0 0 29 26" fill="none" xmlns="http://www.w3.org/2000/svg">
<path d="M5.56902 16.0334L5.51967 15.293L5.08 15.3224L4.89534 15.7224L5.56902 16.0334ZM16.6986 15.2914L16.748 16.0317L17.4406 15.9856V15.2914H16.6986ZM16.6986 7.1297L16.6006 6.39423L15.9566 6.48009V7.1297H16.6986ZM28.4176 6.09646C28.6665 5.77095 28.6044 5.30528 28.2789 5.05636L22.9744 0.999956C22.6489 0.751035 22.1832 0.813125 21.9343 1.13864C21.6854 1.46415 21.7475 1.92982 22.073 2.17874L26.7881 5.78443L23.1824 10.4996C22.9335 10.8251 22.9956 11.2908 23.3211 11.5397C23.6466 11.7886 24.1123 11.7265 24.3612 11.401L28.4176 6.09646ZM1.11719 25.679L1.79087 25.9899L6.24271 16.3443L5.56902 16.0334L4.89534 15.7224L0.443506 25.3681L1.11719 25.679ZM5.56902 16.0334L5.61838 16.7737L16.748 16.0317L16.6986 15.2914L16.6493 14.5511L5.51967 15.293L5.56902 16.0334ZM16.6986 15.2914H17.4406V7.1297H16.6986H15.9566V15.2914H16.6986ZM16.6986 7.1297L16.7967 7.86516L27.9263 6.38122L27.8282 5.64575L27.7301 4.91029L16.6006 6.39423L16.6986 7.1297Z" fill="#2368B0"/>
</svg>
